<svg width="200" height="250" viewBox="0 0 200 250" fill="none" xmlns="http://www.w3.org/2000/svg">
  <ellipse cx="100" cy="200" rx="30" ry="20" fill="#8B4513"/>
  <rect x="98" y="30" width="4" height="170" fill="#228B22"/>
  
  <!-- Foliage -->
  <path d="M100 30 L160 10 L40 10 Z" fill="#32CD32"/>
  <path d="M100 60 L170 40 L30 40 Z" fill="#32CD32"/>
  <path d="M100 90 L160 70 L40 70 Z" fill="#32CD32"/>
  <path d="M100 120 L150 100 L50 100 Z" fill="#32CD32"/>
  <path d="M100 150 L140 130 L60 130 Z" fill="#32CD32"/>
  <path d="M100 180 L130 160 L70 160 Z" fill="#32CD32"/>
  
  <!-- Branches -->
  <rect x="100" y="70" width="40" height="3" fill="#228B22"/>
  <rect x="60" y="100" width="40" height="3" fill="#228B22"/>
  <rect x="100" y="130" width="30" height="3" fill="#228B22"/>
  
  <!-- Flowers -->
  <circle cx="140" cy="70" r="8" fill="#FF69B4"/>
  <circle cx="60" cy="100" r="8" fill="#FF69B4"/>
  <circle cx="130" cy="130" r="8" fill="#FF69B4"/>
  <circle cx="100" cy="30" r="10" fill="#FF69B4"/>
</svg>
