<svg width="200" height="250" viewBox="0 0 200 250" fill="none" xmlns="http://www.w3.org/2000/svg">
  <ellipse cx="100" cy="200" rx="30" ry="20" fill="#8B4513"/>
  <rect x="98" y="20" width="4" height="180" fill="#228B22"/>
  
  <!-- Foliage -->
  <path d="M100 20 L170 0 L30 0 Z" fill="#32CD32"/>
  <path d="M100 50 L180 30 L20 30 Z" fill="#32CD32"/>
  <path d="M100 80 L170 60 L30 60 Z" fill="#32CD32"/>
  <path d="M100 110 L160 90 L40 90 Z" fill="#32CD32"/>
  <path d="M100 140 L150 120 L50 120 Z" fill="#32CD32"/>
  <path d="M100 170 L140 150 L60 150 Z" fill="#32CD32"/>
  
  <!-- Branches -->
  <rect x="100" y="60" width="50" height="3" fill="#228B22"/>
  <rect x="50" y="90" width="50" height="3" fill="#228B22"/>
  <rect x="100" y="120" width="40" height="3" fill="#228B22"/>
  <rect x="60" y="150" width="40" height="3" fill="#228B22"/>
  
  <!-- Fruits -->
  <circle cx="150" cy="60" r="10" fill="#FF4500"/>
  <circle cx="50" cy="90" r="10" fill="#FF4500"/>
  <circle cx="140" cy="120" r="10" fill="#FF4500"/>
  <circle cx="60" cy="150" r="10" fill="#FF4500"/>
  
  <!-- Flowers -->
  <circle cx="130" cy="60" r="8" fill="#FF69B4"/>
  <circle cx="70" cy="90" r="8" fill="#FF69B4"/>
  <circle cx="120" cy="120" r="8" fill="#FF69B4"/>
  <circle cx="80" cy="150" r="8" fill="#FF69B4"/>
  <circle cx="100" cy="20" r="10" fill="#FF69B4"/>
</svg>
